PathFileType	4	(X/Y/Z)	Run_200 02
DataRate	CameraRate	NumFrames	NumMarkers	Units	OrigDataRate	OrigDataStartFrame	OrigNumFrames
100	100	4	42	mm	100	88	128
Frame#	Time	RASI			LPSI			RPSI			RTH1			RTH2			RTH3			LTH1			LTH2			LTH3			RTB1			RTB2			RTB3			LTB1			LTB2			LTB3			RCAL			RTOE			RMT5			LCAL			LTOE			LMT5			LACR			RACR			C7			RUA1			RUA2			RUA3			RLEL			RMEL			LUA2			LUA3			LLEL			LMEL			RFAsuperior			RFAradius			RFAulna			LFAsuperior			LFAradius			LFAulna			LUA1			CLAV			LASI		
		X1	Y1	Z1	X2	Y2	Z2	X3	Y3	Z3	X4	Y4	Z4	X5	Y5	Z5	X6	Y6	Z6	X7	Y7	Z7	X8	Y8	Z8	X9	Y9	Z9	X10	Y10	Z10	X11	Y11	Z11	X12	Y12	Z12	X13	Y13	Z13	X14	Y14	Z14	X15	Y15	Z15	X16	Y16	Z16	X17	Y17	Z17	X18	Y18	Z18	X19	Y19	Z19	X20	Y20	Z20	X21	Y21	Z21	X22	Y22	Z22	X23	Y23	Z23	X24	Y24	Z24	X25	Y25	Z25	X26	Y26	Z26	X27	Y27	Z27	X28	Y28	Z28	X29	Y29	Z29	X30	Y30	Z30	X31	Y31	Z31	X32	Y32	Z32	X33	Y33	Z33	X34	Y34	Z34	X35	Y35	Z35	X36	Y36	Z36	X37	Y37	Z37	X38	Y38	Z38	X39	Y39	Z39	X40	Y40	Z40	X41	Y41	Z41	X42	Y42	Z42	

88	  0.880000	1231.880225	1017.670932	-194.547068	1059.981157	1058.665224	-371.676527	1056.238231	1055.793775	-276.928849	1218.342173	846.721272	-144.037012	1276.918585	759.663930	-160.292805	1247.559607	615.413826	-183.210648	1155.425362	857.602936	-505.213973	1197.548333	721.396323	-479.536248	1108.356550	614.703906	-479.425520	1321.031800	360.041742	-263.086133	1269.877586	257.378901	-226.192555	1289.830804	189.024112	-294.121149	976.059996	372.654381	-414.120402	904.954617	374.103849	-454.537557	849.499164	314.195023	-400.829745	1166.177403	 97.813246	-298.912138	1401.433831	 84.193192	-307.545136	1383.673370	 57.007907	-232.938685	689.568890	353.537656	-379.362270	769.027272	125.755934	-360.136071	731.155021	138.045713	-443.089009	1226.083730	1554.647611	-461.959878	1207.432482	1517.485169	-126.959550	1148.442422	1560.210019	-299.609039	1120.451276	1413.648942	-46.283021	1052.773758	1422.197532	-60.916724	1045.458280	1354.886842	-30.817507	990.888132	1288.513077	-19.230966	960.442275	1296.774763	-108.752408	1092.882324	1414.235494	-553.484402	1126.668874	1345.136396	-597.037413	1105.571259	1277.315696	-616.282288	1052.538501	1265.496778	-539.851138	1075.065317	1269.163675	-36.061942	1222.386513	1238.641032	-120.714265	1200.235478	1173.225796	-99.892661	1181.589017	1244.134441	-583.269296	1307.402759	1232.471791	-453.168097	1302.685234	1164.378816	-475.839371	1174.559908	1456.748033	-553.536882	1265.487047	1472.002676	-266.271817	1233.452182	1008.511615	-449.435695	
89	  0.890000	1229.510594	1011.055877	-194.203593	1056.951201	1049.629326	-371.661073	1053.786623	1047.818286	-277.379937	1217.561834	842.744952	-142.480795	1276.794341	755.111667	-157.517703	1250.042588	611.846740	-183.427199	1155.597582	847.998277	-504.470986	1201.363107	713.935615	-481.490737	1116.096394	604.332391	-479.920768	1318.550725	356.805853	-266.938800	1264.472347	256.067185	-228.244135	1277.542289	187.637861	-297.077959	985.304616	367.287415	-414.997268	914.431255	370.930467	-455.563901	856.752365	313.675804	-402.080983	1148.315741	 99.389950	-299.759980	1383.512127	 80.590846	-310.048470	1365.722774	 57.365376	-234.551387	698.395978	359.027063	-380.021427	770.562009	128.509846	-364.163593	733.217573	143.231067	-446.748758	1224.180516	1545.058368	-462.477303	1209.666459	1506.874041	-124.569745	1149.227504	1551.185842	-297.639712	1125.491617	1398.244534	-43.923366	1057.054969	1405.247825	-56.020898	1052.363797	1336.585715	-28.396796	999.801742	1269.953237	-16.366725	967.348337	1278.423851	-104.937908	1085.860776	1404.820496	-549.125262	1117.856309	1334.918129	-592.722143	1095.223600	1268.713598	-612.455562	1044.859442	1256.997754	-534.530159	1083.842742	1251.539248	-33.915870	1230.418477	1223.156179	-120.798094	1209.068316	1157.505738	-100.087396	1171.151643	1231.769213	-582.991525	1301.290549	1211.445371	-458.545965	1293.231534	1144.278863	-483.258347	1168.221642	1446.271782	-551.703499	1266.836791	1462.457132	-265.830074	1229.964867	1001.410056	-449.814863	
90	  0.900000	1227.128872	1005.552146	-193.841127	1053.871224	1041.019864	-371.933474	1050.978144	1040.347736	-278.582544	1216.122767	838.715918	-141.029727	1275.823771	750.332500	-155.108403	1251.315811	608.159719	-183.815568	1155.620374	838.745217	-503.981581	1205.316402	707.594435	-483.078133	1124.080840	594.720505	-479.945461	1313.976295	353.680464	-270.188532	1256.509780	255.089442	-229.323221	1263.432748	186.534151	-298.624048	996.054142	362.594568	-415.144383	925.610760	367.545578	-456.225094	865.868843	313.253802	-402.786663	1129.498422	100.639818	-300.094874	1364.697742	 78.631048	-311.203332	1346.746878	 57.939388	-235.310184	708.617873	363.621623	-381.272265	774.955991	131.132032	-367.565474	739.003264	147.853029	-450.091975	1222.287050	1536.091653	-463.062087	1211.974600	1496.634425	-121.964850	1150.147771	1543.590772	-295.422134	1130.761084	1382.149749	-42.020306	1061.674670	1387.574830	-50.917996	1059.827424	1317.257971	-27.198763	1009.293581	1250.960097	-13.976438	975.191957	1259.606293	-101.681818	1078.678106	1395.532267	-544.646660	1108.837940	1324.597942	-587.618533	1084.572853	1260.194638	-607.968208	1037.273499	1248.404648	-528.591525	1093.136166	1232.559245	-31.886254	1238.931603	1206.788814	-121.114972	1218.225707	1140.878574	-100.853622	1160.048789	1219.306396	-582.189260	1294.286103	1189.849879	-464.384412	1282.623957	1123.845018	-491.134608	1161.965910	1435.912897	-549.967056	1267.871905	1453.520948	-265.449088	1226.560529	995.448026	-450.164401	
91	  0.910000	1225.103998	1000.907502	-193.547378	1050.847472	1033.378208	-372.345718	1048.185722	1033.677228	-279.937519	1214.440760	834.288881	-140.254597	1274.066078	745.512716	-154.044619	1250.818371	603.816369	-184.171145	1155.627197	830.755992	-503.785427	1209.797059	702.560355	-484.273125	1132.436308	586.741503	-479.923207	1307.208531	349.710005	-271.528764	1245.455903	253.620862	-229.228891	1248.089321	184.786600	-298.579262	1008.215644	358.679294	-415.107856	938.231953	364.389076	-456.893754	876.723399	312.943631	-403.347229	1110.119610	101.500016	-299.942841	1345.381272	 77.291298	-311.285448	1327.220337	 57.393240	-235.107174	719.686119	367.133859	-383.200753	782.517501	133.587416	-370.053244	748.696941	151.621152	-453.050828	1220.081023	1527.864105	-463.287077	1214.242141	1487.070998	-119.537065	1151.202666	1537.750837	-293.094127	1136.554681	1365.912270	-41.056784	1067.024816	1369.830545	-45.816276	1067.993154	1297.829518	-27.424352	1019.604285	1232.048641	-12.272639	984.084282	1240.707500	-99.161465	1071.515157	1387.118136	-539.970632	1099.767413	1315.015752	-582.018411	1073.864679	1252.196679	-602.919034	1030.039082	1240.108707	-522.215616	1103.241419	1213.038633	-30.510653	1248.088117	1190.140904	-121.931316	1227.878589	1123.942198	-102.185477	1148.669878	1207.599638	-580.722156	1286.222438	1168.327051	-470.300204	1270.739295	1103.929862	-499.379025	1155.909361	1426.484912	-548.014507	1268.389164	1445.464606	-265.255318	1223.431821	990.322510	-450.723591	
